<svg xmlns="http://www.w3.org/2000/svg" xmlns:xlink="http://www.w3.org/1999/xlink" width="500" zoomAndPan="magnify" viewBox="0 0 375 112.499997" height="150" preserveAspectRatio="xMidYMid meet" version="1.0"><defs><g/><clipPath id="22c147a56d"><path d="M 35 6.164062 L 103.621094 6.164062 L 103.621094 105.472656 L 35 105.472656 Z M 35 6.164062 " clip-rule="nonzero"/></clipPath><clipPath id="ab76f21a2d"><path d="M 2.074219 7 L 26 7 L 26 72 L 2.074219 72 Z M 2.074219 7 " clip-rule="nonzero"/></clipPath></defs><path fill="#d9d9d9" d="M 77.402344 15.925781 C 76.339844 15.734375 75.242188 15.636719 74.140625 15.636719 C 74.078125 15.636719 74.011719 15.636719 73.941406 15.636719 C 73.921875 15.640625 73.902344 15.640625 73.882812 15.640625 C 73.832031 15.640625 73.777344 15.640625 73.722656 15.640625 C 73.703125 15.644531 73.683594 15.644531 73.664062 15.644531 C 73.597656 15.644531 73.535156 15.648438 73.464844 15.648438 C 73.457031 15.652344 73.449219 15.652344 73.441406 15.652344 C 73.28125 15.660156 73.113281 15.667969 72.941406 15.679688 C 72.929688 15.679688 72.921875 15.679688 72.910156 15.679688 C 72.832031 15.6875 72.75 15.691406 72.664062 15.699219 L 72.644531 15.703125 C 72.460938 15.71875 72.269531 15.734375 72.074219 15.757812 C 82.050781 22.125 88.679688 33.289062 88.679688 45.976562 C 88.679688 52.101562 87.132812 57.875 84.410156 62.921875 C 84.453125 62.875 84.496094 62.832031 84.539062 62.785156 C 90.558594 56.078125 94.777344 48.429688 94.777344 38.8125 C 94.777344 25.183594 86.050781 17.496094 77.402344 15.925781 " fill-opacity="1" fill-rule="nonzero"/><g clip-path="url(#22c147a56d)"><path fill="#6440fb" d="M 96.136719 17.21875 C 91.71875 11.992188 85.625 8.453125 78.976562 7.246094 C 73.019531 6.164062 66.941406 7.0625 61.855469 9.773438 C 58.265625 11.6875 55.226562 14.441406 52.863281 17.890625 C 52.847656 17.871094 52.839844 17.84375 52.820312 17.828125 C 47.722656 13.574219 41.394531 14.238281 38.484375 15.109375 C 42.980469 16.808594 47.167969 20.402344 49.558594 26.777344 L 52.863281 35.585938 L 56.167969 26.777344 C 60.445312 15.378906 70.449219 12.871094 77.714844 14.191406 C 87.085938 15.890625 96.539062 24.164062 96.539062 38.8125 C 96.539062 57.050781 82.421875 68.273438 68.765625 79.125 C 62.789062 83.875 57.074219 88.417969 52.863281 93.378906 C 52.050781 92.421875 51.179688 91.476562 50.257812 90.542969 C 45.277344 90.257812 40.433594 89.152344 35.824219 87.246094 C 41.636719 91.925781 46.871094 96.445312 49.890625 101.175781 L 52.863281 105.835938 L 55.839844 101.175781 C 59.414062 95.574219 66.089844 90.269531 73.160156 84.648438 C 80.273438 78.996094 87.628906 73.152344 93.429688 65.9375 C 100.273438 57.425781 103.601562 48.554688 103.601562 38.8125 C 103.601562 30.460938 101.019531 22.992188 96.136719 17.21875 " fill-opacity="1" fill-rule="nonzero"/></g><g clip-path="url(#ab76f21a2d)"><path fill="#d9d9d9" d="M 16.128906 67.175781 C 9.023438 58.339844 5.570312 49.105469 5.570312 38.945312 C 5.570312 30.171875 8.292969 22.308594 13.449219 16.210938 C 16.644531 12.429688 20.667969 9.484375 25.144531 7.585938 C 19.125 9.039062 13.652344 12.417969 9.59375 17.21875 C 4.710938 22.992188 2.128906 30.460938 2.128906 38.8125 C 2.128906 48.554688 6.5625 59.636719 14.394531 67.25 C 16.773438 69.5625 18.765625 71.015625 20.363281 71.96875 C 18.886719 70.433594 17.46875 68.839844 16.128906 67.175781 " fill-opacity="1" fill-rule="nonzero"/></g><path fill="#ffffff" d="M 47.722656 13.574219 C 44.414062 12.910156 40.929688 12.875 37.492188 13.5 C 30.84375 14.707031 24.75 18.246094 20.332031 23.46875 C 15.449219 29.246094 12.867188 36.714844 12.867188 45.066406 C 12.867188 54.808594 16.195312 63.679688 23.035156 72.191406 C 23.957031 73.335938 24.917969 74.445312 25.910156 75.527344 C 23.109375 72.929688 20.449219 70.183594 18.050781 67.203125 C 11.207031 58.695312 7.882812 49.824219 7.882812 40.082031 C 7.882812 31.726562 10.464844 24.261719 15.347656 18.484375 C 19.765625 13.261719 25.773438 9.097656 32.507812 8.511719 C 43.15625 7.585938 47.722656 13.574219 47.722656 13.574219 " fill-opacity="1" fill-rule="nonzero"/><g fill="#ffffff" fill-opacity="1"><g transform="translate(112.275373, 69.441367)"><g><path d="M 21 -14.09375 C 22.144531 -13.925781 23.109375 -13.546875 23.890625 -12.953125 C 24.679688 -12.359375 25.367188 -11.5 25.953125 -10.375 L 30.171875 -2.34375 L 33.125 -2.34375 L 33.125 0 L 23.640625 0 L 19.03125 -8.71875 C 18.144531 -10.519531 17.390625 -11.664062 16.765625 -12.15625 C 16.140625 -12.65625 15.273438 -12.90625 14.171875 -12.90625 L 12.984375 -12.90625 L 12.984375 -2.34375 L 16.703125 -2.34375 L 16.703125 0 L 1.859375 0 L 1.859375 -2.34375 L 5.546875 -2.34375 L 5.546875 -26.515625 L 1.859375 -26.515625 L 1.859375 -28.859375 L 18.328125 -28.859375 C 21.671875 -28.859375 24.253906 -28.179688 26.078125 -26.828125 C 27.898438 -25.484375 28.8125 -23.578125 28.8125 -21.109375 C 28.8125 -19.097656 28.160156 -17.507812 26.859375 -16.34375 C 25.566406 -15.175781 23.613281 -14.425781 21 -14.09375 Z M 12.984375 -15.234375 L 15.515625 -15.234375 C 17.316406 -15.234375 18.703125 -15.722656 19.671875 -16.703125 C 20.648438 -17.679688 21.140625 -19.078125 21.140625 -20.890625 C 21.140625 -22.703125 20.648438 -24.09375 19.671875 -25.0625 C 18.703125 -26.03125 17.316406 -26.515625 15.515625 -26.515625 L 12.984375 -26.515625 Z M 12.984375 -15.234375 "/></g></g></g><g fill="#ffffff" fill-opacity="1"><g transform="translate(145.163624, 69.441367)"><g><path d="M 15.859375 -11.59375 C 15.859375 -14.300781 15.609375 -16.195312 15.109375 -17.28125 C 14.609375 -18.375 13.753906 -18.921875 12.546875 -18.921875 C 11.367188 -18.921875 10.523438 -18.382812 10.015625 -17.3125 C 9.503906 -16.25 9.25 -14.457031 9.25 -11.9375 L 9.25 -11.59375 Z M 23.390625 -9.296875 L 9.25 -9.296875 L 9.25 -9.140625 C 9.25 -6.484375 9.648438 -4.566406 10.453125 -3.390625 C 11.253906 -2.210938 12.539062 -1.625 14.3125 -1.625 C 15.800781 -1.625 17 -2.015625 17.90625 -2.796875 C 18.820312 -3.585938 19.410156 -4.726562 19.671875 -6.21875 L 22.875 -6.21875 C 22.320312 -3.882812 21.222656 -2.171875 19.578125 -1.078125 C 17.929688 0.015625 15.625 0.5625 12.65625 0.5625 C 9.101562 0.5625 6.375 -0.375 4.46875 -2.25 C 2.570312 -4.125 1.625 -6.800781 1.625 -10.28125 C 1.625 -13.6875 2.59375 -16.34375 4.53125 -18.25 C 6.476562 -20.15625 9.1875 -21.109375 12.65625 -21.109375 C 16.0625 -21.109375 18.671875 -20.101562 20.484375 -18.09375 C 22.296875 -16.09375 23.265625 -13.160156 23.390625 -9.296875 Z M 23.390625 -9.296875 "/></g></g></g><g fill="#ffffff" fill-opacity="1"><g transform="translate(170.34188, 69.441367)"><g><path d="M 21.796875 -12.625 L 21.796875 -2.34375 L 24.734375 -2.34375 L 24.734375 0 L 14.953125 0 L 14.953125 -2.609375 C 14.054688 -1.523438 13.050781 -0.722656 11.9375 -0.203125 C 10.832031 0.304688 9.570312 0.5625 8.15625 0.5625 C 6.050781 0.5625 4.4375 0 3.3125 -1.125 C 2.1875 -2.257812 1.625 -3.875 1.625 -5.96875 C 1.625 -8.28125 2.429688 -10.007812 4.046875 -11.15625 C 5.660156 -12.300781 8.097656 -12.875 11.359375 -12.875 L 14.953125 -12.875 L 14.953125 -14.09375 C 14.953125 -15.75 14.554688 -16.972656 13.765625 -17.765625 C 12.984375 -18.554688 11.769531 -18.953125 10.125 -18.953125 C 8.757812 -18.953125 7.707031 -18.671875 6.96875 -18.109375 C 6.226562 -17.554688 5.703125 -16.640625 5.390625 -15.359375 L 3.203125 -15.359375 L 3.203125 -19.796875 C 4.429688 -20.234375 5.703125 -20.5625 7.015625 -20.78125 C 8.328125 -21 9.710938 -21.109375 11.171875 -21.109375 C 14.835938 -21.109375 17.523438 -20.421875 19.234375 -19.046875 C 20.941406 -17.679688 21.796875 -15.539062 21.796875 -12.625 Z M 14.953125 -6.453125 L 14.953125 -10.578125 L 12.390625 -10.578125 C 11.109375 -10.578125 10.125 -10.226562 9.4375 -9.53125 C 8.757812 -8.832031 8.421875 -7.832031 8.421875 -6.53125 C 8.421875 -5.226562 8.664062 -4.253906 9.15625 -3.609375 C 9.65625 -2.960938 10.414062 -2.640625 11.4375 -2.640625 C 12.5 -2.640625 13.347656 -2.988281 13.984375 -3.6875 C 14.628906 -4.382812 14.953125 -5.304688 14.953125 -6.453125 Z M 14.953125 -6.453125 "/></g></g></g><g fill="#ffffff" fill-opacity="1"><g transform="translate(195.983896, 69.441367)"><g><path d="M 11.109375 -2.34375 L 14.046875 -2.34375 L 14.046875 0 L 1.359375 0 L 1.359375 -2.34375 L 4.265625 -2.34375 L 4.265625 -27.75 L 1.359375 -27.75 L 1.359375 -30.0625 L 11.109375 -30.0625 Z M 11.109375 -2.34375 "/></g></g></g><g fill="#ffffff" fill-opacity="1"><g transform="translate(211.017421, 69.441367)"><g/></g></g><g fill="#ffffff" fill-opacity="1"><g transform="translate(224.794931, 69.441367)"><g><path d="M -0.3125 0 L -0.3125 -2.34375 L 2.046875 -2.34375 L 12.90625 -28.859375 L 17.53125 -28.859375 L 28.40625 -2.34375 L 31.15625 -2.34375 L 31.15625 0 L 17.640625 0 L 17.640625 -2.34375 L 20.46875 -2.34375 L 18.09375 -8.234375 L 7.25 -8.234375 L 4.828125 -2.34375 L 8.265625 -2.34375 L 8.265625 0 Z M 8.1875 -10.578125 L 17.140625 -10.578125 L 12.703125 -21.609375 Z M 8.1875 -10.578125 "/></g></g></g><g fill="#ffffff" fill-opacity="1"><g transform="translate(255.49965, 69.441367)"><g><path d="M 24.015625 -17.1875 C 24.972656 -18.550781 26.003906 -19.546875 27.109375 -20.171875 C 28.222656 -20.796875 29.519531 -21.109375 31 -21.109375 C 33.351562 -21.109375 35.113281 -20.441406 36.28125 -19.109375 C 37.445312 -17.773438 38.03125 -15.757812 38.03125 -13.0625 L 38.03125 -2.34375 L 40.96875 -2.34375 L 40.96875 0 L 28.734375 0 L 28.734375 -2.34375 L 31.1875 -2.34375 L 31.1875 -12.046875 C 31.1875 -14.609375 30.988281 -16.222656 30.59375 -16.890625 C 30.207031 -17.554688 29.476562 -17.890625 28.40625 -17.890625 C 27.195312 -17.890625 26.253906 -17.421875 25.578125 -16.484375 C 24.910156 -15.554688 24.578125 -14.226562 24.578125 -12.5 L 24.578125 -2.34375 L 27.03125 -2.34375 L 27.03125 0 L 15.28125 0 L 15.28125 -2.34375 L 17.734375 -2.34375 L 17.734375 -12.046875 C 17.734375 -14.609375 17.535156 -16.222656 17.140625 -16.890625 C 16.742188 -17.554688 16.015625 -17.890625 14.953125 -17.890625 C 13.734375 -17.890625 12.785156 -17.421875 12.109375 -16.484375 C 11.441406 -15.554688 11.109375 -14.226562 11.109375 -12.5 L 11.109375 -2.34375 L 13.5625 -2.34375 L 13.5625 0 L 1.359375 0 L 1.359375 -2.34375 L 4.265625 -2.34375 L 4.265625 -18.203125 L 1.359375 -18.203125 L 1.359375 -20.546875 L 11.109375 -20.546875 L 11.109375 -17.640625 C 11.910156 -18.835938 12.828125 -19.710938 13.859375 -20.265625 C 14.890625 -20.828125 16.113281 -21.109375 17.53125 -21.109375 C 19.207031 -21.109375 20.566406 -20.785156 21.609375 -20.140625 C 22.648438 -19.503906 23.453125 -18.519531 24.015625 -17.1875 Z M 24.015625 -17.1875 "/></g></g></g><g fill="#ffffff" fill-opacity="1"><g transform="translate(297.373235, 69.441367)"><g><path d="M 13.21875 -1.625 C 14.664062 -1.625 15.679688 -2.238281 16.265625 -3.46875 C 16.847656 -4.707031 17.140625 -6.976562 17.140625 -10.28125 C 17.140625 -13.582031 16.847656 -15.847656 16.265625 -17.078125 C 15.691406 -18.304688 14.675781 -18.921875 13.21875 -18.921875 C 11.757812 -18.921875 10.734375 -18.296875 10.140625 -17.046875 C 9.546875 -15.804688 9.25 -13.550781 9.25 -10.28125 C 9.25 -7.007812 9.546875 -4.75 10.140625 -3.5 C 10.734375 -2.25 11.757812 -1.625 13.21875 -1.625 Z M 13.21875 0.5625 C 9.59375 0.5625 6.753906 -0.398438 4.703125 -2.328125 C 2.648438 -4.253906 1.625 -6.90625 1.625 -10.28125 C 1.625 -13.664062 2.648438 -16.316406 4.703125 -18.234375 C 6.753906 -20.148438 9.59375 -21.109375 13.21875 -21.109375 C 16.851562 -21.109375 19.691406 -20.148438 21.734375 -18.234375 C 23.785156 -16.316406 24.8125 -13.664062 24.8125 -10.28125 C 24.8125 -6.90625 23.785156 -4.253906 21.734375 -2.328125 C 19.679688 -0.398438 16.84375 0.5625 13.21875 0.5625 Z M 13.21875 0.5625 "/></g></g></g><g fill="#ffffff" fill-opacity="1"><g transform="translate(323.768859, 69.441367)"><g><path d="M 24.5 -20.546875 L 24.5 -2.34375 L 27.421875 -2.34375 L 27.421875 0 L 17.640625 0 L 17.640625 -2.90625 C 16.828125 -1.675781 15.890625 -0.789062 14.828125 -0.25 C 13.773438 0.289062 12.445312 0.5625 10.84375 0.5625 C 8.53125 0.5625 6.785156 -0.113281 5.609375 -1.46875 C 4.429688 -2.832031 3.84375 -4.835938 3.84375 -7.484375 L 3.84375 -18.203125 L 0.90625 -18.203125 L 0.90625 -20.546875 L 10.6875 -20.546875 L 10.6875 -8.546875 C 10.6875 -5.992188 10.898438 -4.367188 11.328125 -3.671875 C 11.753906 -2.984375 12.53125 -2.640625 13.65625 -2.640625 C 15.039062 -2.640625 16.050781 -3.148438 16.6875 -4.171875 C 17.320312 -5.191406 17.640625 -6.8125 17.640625 -9.03125 L 17.640625 -18.203125 L 15.15625 -18.203125 L 15.15625 -20.546875 Z M 24.5 -20.546875 "/></g></g></g><g fill="#ffffff" fill-opacity="1"><g transform="translate(352.541248, 69.441367)"><g><path d="M 21.25 -20.78125 L 21.25 -14.65625 L 19.078125 -14.65625 C 18.992188 -15.75 18.691406 -16.5625 18.171875 -17.09375 C 17.660156 -17.625 16.914062 -17.890625 15.9375 -17.890625 C 14.445312 -17.890625 13.269531 -17.234375 12.40625 -15.921875 C 11.539062 -14.609375 11.109375 -12.785156 11.109375 -10.453125 L 11.109375 -2.34375 L 14.84375 -2.34375 L 14.84375 0 L 1.359375 0 L 1.359375 -2.34375 L 4.265625 -2.34375 L 4.265625 -18.203125 L 1.140625 -18.203125 L 1.140625 -20.546875 L 11.109375 -20.546875 L 11.109375 -16.890625 C 11.773438 -18.316406 12.660156 -19.375 13.765625 -20.0625 C 14.867188 -20.757812 16.21875 -21.109375 17.8125 -21.109375 C 18.21875 -21.109375 18.707031 -21.078125 19.28125 -21.015625 C 19.851562 -20.953125 20.507812 -20.875 21.25 -20.78125 Z M 21.25 -20.78125 "/></g></g></g></svg>