<?xml version="1.0" encoding="UTF-8" standalone="no" ?>
<!DOCTYPE svg PUBLIC "-//W3C//DTD SVG 1.1//EN" "http://www.w3.org/Graphics/SVG/1.1/DTD/svg11.dtd">
<svg xmlns="http://www.w3.org/2000/svg" xmlns:xlink="http://www.w3.org/1999/xlink" version="1.1" width="1280" height="1024" viewBox="0 0 1280 1024" xml:space="preserve">
<desc>Created with Fabric.js 5.3.0</desc>
<defs>
</defs>
<g transform="matrix(1 0 0 1 640 512)" id="background-logo"  >
<rect style="stroke: none; stroke-width: 0; stroke-dasharray: none; stroke-linecap: butt; stroke-dashoffset: 0; stroke-linejoin: miter; stroke-miterlimit: 4; fill: rgb(217,217,216); fill-rule: nonzero; opacity: 1;"  paint-order="stroke"  x="-640" y="-512" rx="0" ry="0" width="1280" height="1024" />
</g>
<g transform="matrix(1.9211538461538462 0 0 1.9211538461538462 428.4108174694616 399.3018288237067)" id="tagline-accc5358-84eb-4bb2-abdf-c0b0ac88f9a2-logo"  >
<g style=""  paint-order="stroke"   >
		<g transform="matrix(1 0 0 1 2.842171e-14 2.842171e-14)" id="tagline-accc5358-84eb-4bb2-abdf-c0b0ac88f9a2-logo-path-0"  >
<path style="stroke: rgb(255,255,255); stroke-width: 0; stroke-dasharray: none; stroke-linecap: butt; stroke-dashoffset: 0; stroke-linejoin: miter; stroke-miterlimit: 4; fill: rgb(84,84,85); fill-rule: nonzero; opacity: 0.34;"  paint-order="stroke"  transform=" translate(-111.87, 105.94000000000001)" d="M 173.57 5.42 Q 165.09 5.42 155.43 -3.22 Q 145.77 -11.87 137.63 -26.78 L 137.63 -26.78 L 101.36 -92.55 L 73.22 -92.55 L 72.21 -42.04 Q 72.21 -29.15 73.9 -23.56 Q 75.6 -17.97 80.34 -16.1 Q 85.09 -14.24 96.62 -14.24 L 96.62 -14.24 L 97.29 -12.88 L 94.24 1.36 Q 90.17 1.02 77.97 0.68 Q 65.77 0.34 52.55 0.34 L 52.55 0.34 Q 40.68 0.34 31.53 0.68 Q 22.37 1.02 19.32 1.36 L 19.32 1.36 L 22.37 -13.9 Q 33.22 -15.26 38.65 -17.63 Q 44.07 -20 46.1 -25.26 Q 48.14 -30.51 48.14 -40.68 L 48.14 -40.68 L 48.48 -183.06 Q 48.48 -193.91 45.93 -197.64 Q 43.39 -201.37 35.93 -201.37 L 35.93 -201.37 Q 32.54 -201.37 29.15 -201.03 Q 25.76 -200.69 24.41 -200.69 L 24.41 -200.69 L 23.73 -202.04 L 26.1 -216.96 Q 30.17 -216.62 41.36 -216.28 Q 52.55 -215.94 63.73 -215.94 L 63.73 -215.94 Q 75.26 -215.94 87.97 -216.45 Q 100.68 -216.96 105.43 -217.3 L 105.43 -217.3 Q 136.96 -217.3 155.26 -203.06 Q 173.57 -188.82 173.57 -164.08 L 173.57 -164.08 Q 173.57 -143.74 160.52 -126.79 Q 147.47 -109.84 123.74 -98.99 L 123.74 -98.99 L 161.03 -40 Q 170.86 -23.73 180.18 -17.46 Q 189.5 -11.19 203.06 -11.19 L 203.06 -11.19 L 204.42 -9.83 L 202.38 1.7 L 173.57 5.42 Z M 108.82 -108.14 Q 108.82 -107.12 118.99 -112.55 Q 129.16 -117.97 137.3 -129.16 Q 145.43 -140.35 145.43 -157.97 L 145.43 -157.97 Q 145.43 -202.72 83.39 -202.72 L 83.39 -202.72 Q 80 -202.72 78.82 -201.2 Q 77.63 -199.67 77.29 -194.93 L 77.29 -194.93 Q 74.24 -143.06 73.9 -111.53 L 73.9 -111.53 L 108.82 -108.14 Z" stroke-linecap="round" />
</g>
</g>
</g>
<g transform="matrix(1.9211538461538462 0 0 1.9211538461538462 643.0354230769229 746.6455312218956)" id="text-logo"  >
<g style=""  paint-order="stroke"   >
		<g transform="matrix(1 0 0 1 0 0)" id="text-logo-path-0"  >
<path style="stroke: rgb(60,102,95); stroke-width: 1; stroke-dasharray: none; stroke-linecap: butt; stroke-dashoffset: 0; stroke-linejoin: miter; stroke-miterlimit: 4; fill: rgb(55,53,67); fill-rule: nonzero; opacity: 1;"  paint-order="stroke"  transform=" translate(-179.88, 25.005000000000003)" d="M 40.45 1.26 Q 38.47 1.26 36.22 -0.75 Q 33.97 -2.77 32.07 -6.24 L 32.07 -6.24 L 23.62 -21.57 L 17.06 -21.57 L 16.83 -9.8 Q 16.83 -6.79 17.22 -5.49 Q 17.62 -4.19 18.72 -3.75 Q 19.83 -3.32 22.52 -3.32 L 22.52 -3.32 L 22.67 -3 L 21.96 0.32 Q 21.01 0.24 18.17 0.16 Q 15.33 0.08 12.25 0.08 L 12.25 0.08 Q 9.48 0.08 7.35 0.16 Q 5.21 0.24 4.5 0.32 L 4.5 0.32 L 5.21 -3.24 Q 7.74 -3.56 9.01 -4.11 Q 10.27 -4.66 10.74 -5.89 Q 11.22 -7.11 11.22 -9.48 L 11.22 -9.48 L 11.3 -42.66 Q 11.3 -45.19 10.7 -46.06 Q 10.11 -46.93 8.37 -46.93 L 8.37 -46.93 Q 7.58 -46.93 6.79 -46.85 Q 6 -46.77 5.69 -46.77 L 5.69 -46.77 L 5.53 -47.08 L 6.08 -50.56 Q 7.03 -50.48 9.64 -50.4 Q 12.25 -50.32 14.85 -50.32 L 14.85 -50.32 Q 17.54 -50.32 20.5 -50.44 Q 23.46 -50.56 24.57 -50.64 L 24.57 -50.64 Q 31.92 -50.64 36.18 -47.32 Q 40.45 -44 40.45 -38.24 L 40.45 -38.24 Q 40.45 -33.5 37.41 -29.55 Q 34.37 -25.6 28.84 -23.07 L 28.84 -23.07 L 37.52 -9.32 Q 39.82 -5.53 41.99 -4.07 Q 44.16 -2.61 47.32 -2.61 L 47.32 -2.61 L 47.64 -2.29 L 47.16 0.4 L 40.45 1.26 Z M 25.36 -25.2 Q 25.36 -24.96 27.73 -26.23 Q 30.1 -27.49 32 -30.1 Q 33.89 -32.71 33.89 -36.81 L 33.89 -36.81 Q 33.89 -47.24 19.43 -47.24 L 19.43 -47.24 Q 18.64 -47.24 18.37 -46.89 Q 18.09 -46.53 18.01 -45.42 L 18.01 -45.42 Q 17.3 -33.34 17.22 -25.99 L 17.22 -25.99 L 25.36 -25.2 Z M 52.69 0.63 L 53.09 -2.69 Q 56.01 -3 57.04 -4.11 Q 58.06 -5.21 58.06 -7.9 L 58.06 -7.9 L 58.14 -32.94 Q 58.14 -34.92 57.67 -35.59 Q 57.2 -36.26 55.77 -36.26 L 55.77 -36.26 L 53.64 -36.18 L 53.48 -36.5 L 53.96 -39.5 Q 54.91 -39.5 57.67 -39.42 Q 60.44 -39.34 63.67 -39.34 L 63.67 -39.34 Q 76.87 -39.34 83.19 -40.05 L 83.19 -40.05 L 83.42 -39.66 Q 83.27 -38.79 82.71 -35.71 Q 82.16 -32.63 81.92 -29.07 L 81.92 -29.07 L 78.13 -28.76 Q 78.13 -29.07 78.21 -29.82 Q 78.29 -30.57 78.29 -31.36 L 78.29 -31.36 Q 78.29 -33.42 77.7 -34.25 Q 77.1 -35.08 75.25 -35.35 Q 73.39 -35.63 68.81 -35.63 L 68.81 -35.63 Q 66.68 -35.63 65.89 -35.51 Q 65.1 -35.39 64.86 -34.96 Q 64.62 -34.52 64.54 -33.34 L 64.54 -33.34 L 64.07 -22.12 L 70.55 -22.04 Q 71.97 -22.04 74.73 -22.32 Q 77.5 -22.59 78.37 -22.67 L 78.37 -22.67 L 78.68 -22.28 L 77.74 -18.17 Q 76.87 -18.17 74.3 -18.25 Q 71.73 -18.33 68.89 -18.33 L 68.89 -18.33 Q 66.68 -18.33 63.91 -17.93 L 63.91 -17.93 Q 63.67 -11.93 63.67 -7.11 L 63.67 -7.11 Q 63.67 -5.29 63.95 -4.58 Q 64.23 -3.87 65.21 -3.63 Q 66.2 -3.4 68.49 -3.4 L 68.49 -3.4 Q 73.63 -3.4 75.84 -3.87 Q 78.05 -4.34 78.96 -5.81 Q 79.87 -7.27 80.42 -10.82 L 80.42 -10.82 L 83.9 -11.14 L 84.21 -10.74 Q 83.98 -9.88 83.38 -6.68 Q 82.79 -3.48 82.48 0 L 82.48 0 L 82 0.4 Q 79.87 0.32 73.15 0.16 Q 66.44 0 62.25 0 L 62.25 0 Q 59.01 0 56.25 0.28 Q 53.48 0.55 52.69 0.63 L 52.69 0.63 Z M 111.15 0.55 L 110.92 0.16 L 111.15 -2.69 Q 114.47 -2.92 115.62 -3.4 Q 116.76 -3.87 116.76 -4.98 L 116.76 -4.98 Q 116.76 -6.24 116.21 -7.66 L 116.21 -7.66 L 114.31 -13.75 Q 112.73 -13.82 107.76 -13.82 L 107.76 -13.82 Q 105.47 -13.82 100.96 -13.35 L 100.96 -13.35 L 98.75 -7.5 Q 98.2 -5.69 98.2 -5.29 L 98.2 -5.29 Q 98.2 -4.03 99.07 -3.48 Q 99.94 -2.92 101.91 -2.92 L 101.91 -2.92 L 105.31 -2.92 L 105.54 -2.61 L 105.07 0.4 Q 104.28 0.32 101.48 0.16 Q 98.67 0 95.98 0 L 95.98 0 Q 93.46 0 91.44 0.08 Q 89.43 0.16 88.72 0.16 L 88.72 0.16 L 89.19 -3.08 Q 90.93 -3.32 91.96 -4.31 Q 92.98 -5.29 94.01 -7.66 L 94.01 -7.66 L 106.41 -39.03 L 112.02 -40.05 L 112.58 -39.97 Q 112.58 -39.66 116.17 -27.49 Q 119.76 -15.33 122.61 -7.35 L 122.61 -7.35 Q 123.4 -5.06 124.62 -4.15 Q 125.85 -3.24 128.53 -3 L 128.53 -3 L 128.69 -2.69 L 128.3 0.16 Q 127.51 0.16 125.37 0.08 Q 123.24 0 121.11 0 L 121.11 0 Q 117.87 0 114.94 0.24 Q 112.02 0.47 111.15 0.55 L 111.15 0.55 Z M 102.23 -17.06 L 107.6 -17.06 Q 110.36 -17.06 113.36 -17.38 L 113.36 -17.38 L 108.55 -32.71 L 107.99 -32.71 L 102.23 -17.06 Z M 133.98 0.63 L 134.46 -2.69 Q 136.99 -3.08 137.89 -4.15 Q 138.8 -5.21 138.8 -7.9 L 138.8 -7.9 L 138.88 -32.94 Q 138.88 -34.92 138.41 -35.59 Q 137.93 -36.26 136.51 -36.26 L 136.51 -36.26 L 134.38 -36.18 L 134.14 -36.5 L 134.62 -39.5 Q 135.01 -39.5 136.99 -39.42 Q 138.96 -39.34 142.28 -39.34 L 142.28 -39.34 Q 144.02 -39.34 146.58 -39.58 Q 149.15 -39.82 149.94 -39.9 L 149.94 -39.9 L 149.63 -36.58 Q 147.49 -36.34 146.62 -35.83 Q 145.75 -35.31 145.6 -34.52 Q 145.44 -33.73 145.2 -31.28 L 145.2 -31.28 Q 144.41 -20.7 144.41 -7.82 L 144.41 -7.82 Q 144.41 -5.85 144.77 -4.94 Q 145.12 -4.03 146.19 -3.71 Q 147.26 -3.4 149.55 -3.4 L 149.55 -3.4 Q 153.34 -3.4 155.12 -4.03 Q 156.89 -4.66 157.8 -6.52 Q 158.71 -8.37 159.42 -12.4 L 159.42 -12.4 L 162.9 -12.8 L 163.13 -12.32 Q 162.98 -11.3 162.38 -7.62 Q 161.79 -3.95 161.32 0.08 L 161.32 0.08 L 160.92 0.55 Q 159.11 0.47 153.22 0.24 Q 147.33 0 143.31 0 L 143.31 0 Q 140.15 0 137.42 0.28 Q 134.69 0.55 133.98 0.63 L 133.98 0.63 Z M 192.44 0.79 L 192.21 0.24 L 192.52 -2.84 Q 196.55 -3.16 198.05 -3.79 Q 199.55 -4.42 199.55 -5.85 L 199.55 -5.85 Q 199.55 -7.43 198.84 -9.64 L 198.84 -9.64 L 196.24 -18.25 Q 194.34 -18.33 188.02 -18.33 L 188.02 -18.33 Q 184.23 -18.33 179.41 -17.7 L 179.41 -17.7 L 176.49 -9.48 Q 175.77 -7.35 175.77 -6.4 L 175.77 -6.4 Q 175.77 -4.66 176.88 -3.91 Q 177.99 -3.16 180.51 -3.16 L 180.51 -3.16 L 185.02 -3.16 L 185.18 -2.84 L 184.7 0.55 Q 183.75 0.47 180.36 0.24 Q 176.96 0 173.72 0 L 173.72 0 Q 170.8 0 168.31 0.08 Q 165.82 0.16 165.03 0.24 L 165.03 0.24 L 165.66 -3.48 Q 167.87 -3.71 169.22 -5.02 Q 170.56 -6.32 171.82 -9.56 L 171.82 -9.56 L 187.23 -49.93 L 192.21 -51.27 L 192.84 -51.27 Q 193.31 -49.38 195.25 -42.5 Q 197.18 -35.63 199.99 -26.23 Q 202.79 -16.83 205.4 -8.93 L 205.4 -8.93 Q 206.35 -6 207.93 -4.82 Q 209.51 -3.63 212.98 -3.32 L 212.98 -3.32 L 213.14 -3 L 212.59 0.24 Q 211.64 0.24 209.15 0.12 Q 206.66 0 204.21 0 L 204.21 0 Q 200.42 0 196.91 0.32 Q 193.39 0.63 192.44 0.79 L 192.44 0.79 Z M 180.83 -21.57 L 187.78 -21.57 Q 190.63 -21.57 195.13 -21.96 L 195.13 -21.96 L 188.89 -42.66 L 188.34 -42.66 L 180.83 -21.57 Z M 238.66 1.11 Q 230.68 -20.54 226.73 -30.57 L 226.73 -30.57 L 226.33 -30.57 Q 226.02 -26.78 225.19 -16.43 Q 224.36 -6.08 224.36 -5.06 L 224.36 -5.06 Q 224.36 -4.03 224.83 -3.59 Q 225.31 -3.16 226.41 -3.16 L 226.41 -3.16 L 228.94 -3.16 L 229.1 -2.92 L 228.55 0.24 Q 227.84 0.24 225.82 0.12 Q 223.81 0 221.83 0 L 221.83 0 Q 220.25 0 218.43 0.2 Q 216.62 0.4 216.06 0.47 L 216.06 0.47 L 216.38 -2.77 Q 218.43 -3 219.3 -3.99 Q 220.17 -4.98 220.49 -7.43 L 220.49 -7.43 Q 221.12 -12.8 222.19 -22.52 Q 223.25 -32.23 223.25 -33.42 L 223.25 -33.42 Q 223.25 -35 222.03 -35.75 Q 220.8 -36.5 217.8 -36.66 L 217.8 -36.66 L 217.57 -37.05 L 218.12 -39.66 Q 218.99 -39.58 221.2 -39.46 Q 223.41 -39.34 225.47 -39.34 L 225.47 -39.34 Q 227.2 -39.34 228.67 -39.42 Q 230.13 -39.5 230.6 -39.58 L 230.6 -39.58 Q 232.97 -32.23 235.22 -25.79 Q 237.47 -19.36 238.94 -15.52 Q 240.4 -11.69 240.79 -10.74 L 240.79 -10.74 L 241.19 -10.74 Q 242.06 -12.96 245.1 -21.09 Q 248.14 -29.23 251.69 -39.42 L 251.69 -39.42 Q 252.17 -39.5 252.92 -39.46 Q 253.67 -39.42 254.38 -39.42 L 254.38 -39.42 Q 255.25 -39.34 256.91 -39.34 L 256.91 -39.34 Q 258.17 -39.34 260.58 -39.5 Q 262.99 -39.66 263.78 -39.74 L 263.78 -39.74 L 263.94 -39.5 L 263.54 -36.73 Q 260.78 -36.42 259.67 -35.67 Q 258.57 -34.92 258.57 -33.34 L 258.57 -33.34 Q 258.57 -31.76 259.12 -23.3 Q 259.67 -14.85 260.23 -8.93 L 260.23 -8.93 Q 260.62 -5.37 261.25 -4.27 Q 261.88 -3.16 263.39 -3.16 L 263.39 -3.16 L 265.2 -3.24 L 265.36 -3 L 264.81 0.16 Q 264.18 0.16 262.36 0.08 Q 260.54 0 258.49 0 L 258.49 0 Q 256.43 0 253.83 0.24 Q 251.22 0.47 251.06 0.47 L 251.06 0.47 L 251.38 -2.77 Q 253.43 -3 254.3 -3.71 Q 255.17 -4.42 255.17 -5.85 L 255.17 -5.85 Q 255.17 -7.27 254.34 -17.14 Q 253.51 -27.02 253.19 -30.57 L 253.19 -30.57 L 252.8 -30.57 Q 248.14 -18.64 240.95 0.63 L 240.95 0.63 L 238.66 1.11 Z M 289.77 0.71 Q 284.4 0.71 280.25 -1.66 Q 276.1 -4.03 273.85 -8.37 Q 271.6 -12.72 271.6 -18.41 L 271.6 -18.41 Q 271.6 -24.57 274.41 -29.51 Q 277.21 -34.44 282.07 -37.25 Q 286.93 -40.05 292.93 -40.05 L 292.93 -40.05 Q 298.38 -40.05 302.57 -37.68 Q 306.76 -35.31 309.05 -31.01 Q 311.34 -26.7 311.34 -21.01 L 311.34 -21.01 Q 311.34 -14.85 308.53 -9.91 Q 305.73 -4.98 300.79 -2.13 Q 295.85 0.71 289.77 0.71 L 289.77 0.71 Z M 291.67 -3.08 Q 297.43 -3.08 300.99 -7.23 Q 304.54 -11.38 304.54 -18.25 L 304.54 -18.25 Q 304.54 -23.46 302.85 -27.41 Q 301.15 -31.36 298.03 -33.5 Q 294.91 -35.63 290.8 -35.63 L 290.8 -35.63 Q 285.19 -35.63 281.75 -31.52 Q 278.32 -27.41 278.32 -20.54 L 278.32 -20.54 Q 278.32 -15.33 279.98 -11.38 Q 281.63 -7.43 284.68 -5.25 Q 287.72 -3.08 291.67 -3.08 L 291.67 -3.08 Z M 348.78 0.95 Q 347.05 0.95 345.23 -0.59 Q 343.41 -2.13 341.91 -4.82 L 341.91 -4.82 L 335.28 -16.43 L 330.14 -16.43 L 329.98 -7.98 Q 329.98 -5.69 330.3 -4.7 Q 330.62 -3.71 331.52 -3.4 Q 332.43 -3.08 334.64 -3 L 334.64 -3 L 334.8 -2.77 L 334.17 0.24 Q 333.22 0.16 330.73 0.12 Q 328.25 0.08 325.72 0.08 L 325.72 0.08 Q 323.27 0.08 321.45 0.16 Q 319.63 0.24 319 0.32 L 319 0.32 L 319.56 -2.92 Q 322.48 -3.32 323.43 -4.27 Q 324.37 -5.21 324.37 -7.82 L 324.37 -7.82 L 324.45 -33.02 Q 324.45 -34.92 323.98 -35.59 Q 323.5 -36.26 322.16 -36.26 L 322.16 -36.26 L 319.95 -36.18 L 319.71 -36.5 L 320.19 -39.5 Q 320.98 -39.5 323.19 -39.42 Q 325.4 -39.34 327.61 -39.34 L 327.61 -39.34 Q 329.9 -39.34 332.51 -39.46 Q 335.12 -39.58 336.07 -39.58 L 336.07 -39.58 Q 342.46 -39.58 346.1 -36.93 Q 349.73 -34.29 349.73 -29.63 L 349.73 -29.63 Q 349.73 -25.99 347.28 -22.91 Q 344.83 -19.83 340.41 -17.85 L 340.41 -17.85 L 347.13 -7.74 Q 349.02 -4.9 350.76 -3.71 Q 352.5 -2.53 354.95 -2.53 L 354.95 -2.53 L 355.26 -2.13 L 354.87 0.32 L 348.78 0.95 Z M 336.7 -19.91 Q 338.2 -20.54 339.34 -21.13 Q 340.49 -21.73 341.91 -23.62 Q 343.33 -25.52 343.33 -28.52 L 343.33 -28.52 Q 343.33 -36.18 332.04 -36.18 L 332.04 -36.18 Q 331.4 -36.18 331.17 -35.91 Q 330.93 -35.63 330.93 -34.76 L 330.93 -34.76 Q 330.3 -25.12 330.3 -20.54 L 330.3 -20.54 L 336.7 -19.91 Z" stroke-linecap="round" />
</g>
</g>
</g>
<g transform="matrix(1.9211538461538462 0 0 1.9211538461538462 638.5669977427585 867.5807826065111)" id="tagline-d105c061-a3ed-4e8f-b15c-f3f621a11ee8-logo"  >
<g style=""  paint-order="stroke"   >
		<g transform="matrix(1 0 0 1 0 0)" id="tagline-d105c061-a3ed-4e8f-b15c-f3f621a11ee8-logo-path-0"  >
<path style="stroke: none; stroke-width: 0; stroke-dasharray: none; stroke-linecap: butt; stroke-dashoffset: 0; stroke-linejoin: miter; stroke-miterlimit: 4; fill: rgb(55,53,67); fill-rule: nonzero; opacity: 1;"  paint-order="stroke"  transform=" translate(-134.585, 9.625)" d="M 3.88 0.12 L 4.12 -1.21 Q 5.67 -1.33 6.26 -1.6 Q 6.85 -1.86 7.04 -2.56 Q 7.22 -3.25 7.22 -5.02 L 7.22 -5.02 L 7.22 -18.54 Q 4.59 -18.45 3.64 -18.24 Q 2.7 -18.04 2.36 -17.34 Q 2.02 -16.65 1.74 -14.63 L 1.74 -14.63 L 0.28 -14.51 Q 0.65 -17.45 0.74 -19.87 L 0.74 -19.87 L 1.02 -20.12 L 3.6 -19.78 L 13.21 -19.78 L 15.84 -20.12 L 16.12 -19.87 Q 16.21 -17.33 16.59 -14.63 L 16.59 -14.63 L 15.13 -14.51 Q 14.79 -16.55 14.45 -17.27 Q 14.11 -17.98 13.24 -18.2 Q 12.37 -18.41 9.89 -18.54 L 9.89 -18.54 Q 9.7 -16.68 9.55 -11.97 Q 9.39 -7.25 9.39 -3.47 L 9.39 -3.47 Q 9.39 -2.33 9.8 -1.84 Q 10.2 -1.36 11.16 -1.36 L 11.16 -1.36 Q 12.09 -1.36 12.87 -1.46 L 12.87 -1.46 L 12.96 -1.33 L 12.68 0.09 L 11.66 0.06 L 8.12 0 Q 6.42 0 3.88 0.12 L 3.88 0.12 Z M 18.6 0.28 L 18.75 -0.99 Q 19.9 -1.21 20.3 -1.63 Q 20.71 -2.05 20.71 -3.07 L 20.71 -3.07 L 20.74 -12.93 Q 20.74 -13.7 20.55 -13.97 Q 20.37 -14.23 19.81 -14.23 L 19.81 -14.23 L 18.97 -14.2 L 18.88 -14.32 L 19.06 -15.5 Q 19.38 -15.5 20.23 -15.47 Q 21.08 -15.44 21.95 -15.44 L 21.95 -15.44 Q 22.66 -15.44 23.65 -15.53 Q 24.64 -15.62 24.95 -15.65 L 24.95 -15.65 L 24.83 -14.38 Q 24.09 -14.26 23.78 -14.09 Q 23.47 -13.92 23.36 -13.56 Q 23.25 -13.21 23.19 -12.34 L 23.19 -12.34 L 23.03 -8.59 L 27.06 -8.56 Q 28.71 -8.56 30.63 -8.77 L 30.63 -8.77 L 30.66 -12.93 Q 30.66 -13.7 30.47 -13.97 Q 30.29 -14.23 29.73 -14.23 L 29.73 -14.23 L 28.86 -14.2 L 28.8 -14.32 L 28.98 -15.5 Q 29.26 -15.47 30.07 -15.45 Q 30.88 -15.44 31.65 -15.44 L 31.65 -15.44 Q 32.39 -15.44 33.46 -15.53 Q 34.53 -15.62 34.88 -15.65 L 34.88 -15.65 L 34.78 -14.38 Q 33.82 -14.26 33.51 -14 Q 33.2 -13.73 33.17 -13.02 L 33.17 -13.02 Q 33.05 -10.57 32.94 -7.55 Q 32.83 -4.53 32.83 -2.88 L 32.83 -2.88 Q 32.83 -1.89 33.05 -1.57 Q 33.26 -1.24 33.91 -1.24 L 33.91 -1.24 Q 34.29 -1.24 34.6 -1.27 Q 34.91 -1.3 35 -1.3 L 35 -1.3 L 35.09 -1.18 L 34.84 0.06 Q 34.5 0.06 33.56 0.03 Q 32.61 0 31.59 0 L 31.59 0 L 28.49 0.03 L 28.74 -1.21 Q 29.54 -1.21 29.93 -1.41 Q 30.32 -1.61 30.47 -2.12 Q 30.63 -2.63 30.63 -3.66 L 30.63 -3.66 L 30.63 -7.13 L 27.06 -7.16 Q 26.57 -7.16 25.05 -7.05 Q 23.53 -6.94 23 -6.91 L 23 -6.91 L 22.91 -2.88 Q 22.91 -1.89 23.13 -1.55 Q 23.34 -1.21 23.99 -1.21 L 23.99 -1.21 Q 24.37 -1.21 24.68 -1.24 Q 24.99 -1.27 25.08 -1.3 L 25.08 -1.3 L 25.14 -1.18 L 24.92 0.06 Q 24.68 0.06 23.98 0.03 Q 23.28 0 22.51 0 L 22.51 0 Q 21.36 0 19.99 0.09 Q 18.63 0.19 18.6 0.28 L 18.6 0.28 Z M 38.41 0.25 L 38.56 -1.05 Q 39.71 -1.18 40.11 -1.61 Q 40.52 -2.05 40.52 -3.1 L 40.52 -3.1 L 40.55 -12.93 Q 40.55 -13.7 40.36 -13.97 Q 40.18 -14.23 39.62 -14.23 L 39.62 -14.23 L 38.78 -14.2 L 38.72 -14.32 L 38.91 -15.5 Q 39.28 -15.5 40.36 -15.47 Q 41.45 -15.44 42.72 -15.44 L 42.72 -15.44 Q 47.89 -15.44 50.38 -15.72 L 50.38 -15.72 L 50.47 -15.56 Q 50.41 -15.22 50.19 -14.01 Q 49.97 -12.8 49.88 -11.41 L 49.88 -11.41 L 48.39 -11.28 Q 48.39 -11.41 48.42 -11.7 Q 48.45 -12 48.45 -12.31 L 48.45 -12.31 Q 48.45 -13.11 48.22 -13.44 Q 47.99 -13.76 47.26 -13.87 Q 46.53 -13.98 44.73 -13.98 L 44.73 -13.98 Q 43.9 -13.98 43.59 -13.93 Q 43.28 -13.89 43.18 -13.72 Q 43.09 -13.55 43.06 -13.08 L 43.06 -13.08 L 42.87 -8.68 L 45.41 -8.65 Q 45.97 -8.65 47.06 -8.76 Q 48.14 -8.87 48.48 -8.9 L 48.48 -8.9 L 48.61 -8.74 L 48.24 -7.13 Q 47.89 -7.13 46.89 -7.16 Q 45.88 -7.19 44.76 -7.19 L 44.76 -7.19 Q 43.9 -7.19 42.81 -7.04 L 42.81 -7.04 Q 42.72 -4.68 42.72 -2.79 L 42.72 -2.79 Q 42.72 -2.08 42.83 -1.8 Q 42.94 -1.52 43.32 -1.43 Q 43.71 -1.33 44.61 -1.33 L 44.61 -1.33 Q 46.62 -1.33 47.49 -1.52 Q 48.36 -1.71 48.72 -2.28 Q 49.07 -2.85 49.29 -4.25 L 49.29 -4.25 L 50.65 -4.37 L 50.78 -4.22 Q 50.69 -3.88 50.45 -2.62 Q 50.22 -1.36 50.1 0 L 50.1 0 L 49.91 0.15 Q 49.07 0.12 46.44 0.06 Q 43.8 0 42.16 0 L 42.16 0 Q 40.89 0 39.8 0.11 Q 38.72 0.22 38.41 0.25 L 38.41 0.25 Z M 68.91 0.31 L 68.82 0.09 L 68.94 -1.12 Q 70.52 -1.24 71.11 -1.49 Q 71.7 -1.74 71.7 -2.29 L 71.7 -2.29 Q 71.7 -2.91 71.42 -3.78 L 71.42 -3.78 L 70.4 -7.16 Q 69.66 -7.19 67.18 -7.19 L 67.18 -7.19 Q 65.69 -7.19 63.8 -6.94 L 63.8 -6.94 L 62.65 -3.72 Q 62.37 -2.88 62.37 -2.51 L 62.37 -2.51 Q 62.37 -1.83 62.81 -1.53 Q 63.24 -1.24 64.23 -1.24 L 64.23 -1.24 L 66 -1.24 L 66.06 -1.12 L 65.88 0.22 Q 65.5 0.19 64.17 0.09 Q 62.84 0 61.57 0 L 61.57 0 Q 60.42 0 59.44 0.03 Q 58.47 0.06 58.16 0.09 L 58.16 0.09 L 58.4 -1.36 Q 59.27 -1.46 59.8 -1.97 Q 60.33 -2.48 60.82 -3.75 L 60.82 -3.75 L 66.87 -19.59 L 68.82 -20.12 L 69.07 -20.12 Q 69.25 -19.38 70.01 -16.68 Q 70.77 -13.98 71.87 -10.29 Q 72.97 -6.6 74 -3.5 L 74 -3.5 Q 74.37 -2.36 74.99 -1.89 Q 75.61 -1.43 76.97 -1.3 L 76.97 -1.3 L 77.03 -1.18 L 76.82 0.09 Q 76.45 0.09 75.47 0.05 Q 74.49 0 73.53 0 L 73.53 0 Q 72.04 0 70.66 0.12 Q 69.28 0.25 68.91 0.31 L 68.91 0.31 Z M 64.36 -8.46 L 67.08 -8.46 Q 68.2 -8.46 69.97 -8.62 L 69.97 -8.62 L 67.52 -16.74 L 67.3 -16.74 L 64.36 -8.46 Z M 90.09 0.37 Q 89.4 0.37 88.69 -0.23 Q 87.98 -0.84 87.39 -1.89 L 87.39 -1.89 L 84.78 -6.45 L 82.77 -6.45 L 82.71 -3.13 Q 82.71 -2.23 82.83 -1.84 Q 82.96 -1.46 83.31 -1.33 Q 83.67 -1.21 84.54 -1.18 L 84.54 -1.18 L 84.6 -1.08 L 84.35 0.09 Q 83.98 0.06 83 0.05 Q 82.03 0.03 81.03 0.03 L 81.03 0.03 Q 80.07 0.03 79.36 0.06 Q 78.65 0.09 78.4 0.12 L 78.4 0.12 L 78.62 -1.15 Q 79.76 -1.3 80.13 -1.67 Q 80.51 -2.05 80.51 -3.07 L 80.51 -3.07 L 80.54 -12.96 Q 80.54 -13.7 80.35 -13.97 Q 80.17 -14.23 79.64 -14.23 L 79.64 -14.23 L 78.77 -14.2 L 78.68 -14.32 L 78.86 -15.5 Q 79.17 -15.5 80.04 -15.47 Q 80.91 -15.44 81.78 -15.44 L 81.78 -15.44 Q 82.68 -15.44 83.7 -15.48 Q 84.72 -15.53 85.09 -15.53 L 85.09 -15.53 Q 87.61 -15.53 89.03 -14.49 Q 90.46 -13.45 90.46 -11.63 L 90.46 -11.63 Q 90.46 -10.2 89.5 -8.99 Q 88.54 -7.78 86.8 -7.01 L 86.8 -7.01 L 89.43 -3.04 Q 90.18 -1.92 90.86 -1.46 Q 91.54 -0.99 92.5 -0.99 L 92.5 -0.99 L 92.63 -0.84 L 92.47 0.12 L 90.09 0.37 Z M 85.34 -7.81 Q 85.93 -8.06 86.38 -8.29 Q 86.83 -8.53 87.39 -9.27 Q 87.95 -10.01 87.95 -11.19 L 87.95 -11.19 Q 87.95 -14.2 83.51 -14.2 L 83.51 -14.2 Q 83.27 -14.2 83.17 -14.09 Q 83.08 -13.98 83.08 -13.64 L 83.08 -13.64 Q 82.83 -9.86 82.83 -8.06 L 82.83 -8.06 L 85.34 -7.81 Z M 96.53 0.12 L 96.75 -1.12 Q 97.99 -1.21 98.5 -1.43 Q 99.01 -1.64 99.15 -2.15 Q 99.29 -2.67 99.29 -3.94 L 99.29 -3.94 L 99.29 -14.2 Q 97.34 -14.14 96.66 -13.98 Q 95.98 -13.83 95.65 -13.25 Q 95.32 -12.68 95.11 -11.1 L 95.11 -11.1 L 93.65 -11.01 Q 93.71 -11.41 93.85 -12.79 Q 93.99 -14.17 94.02 -15.5 L 94.02 -15.5 L 94.27 -15.72 L 96.47 -15.47 L 104.38 -15.47 L 106.64 -15.72 L 106.89 -15.5 Q 106.92 -14.14 107.04 -12.8 Q 107.17 -11.47 107.23 -11.1 L 107.23 -11.1 L 105.8 -11.01 Q 105.55 -12.62 105.23 -13.22 Q 104.9 -13.83 104.27 -13.98 Q 103.63 -14.14 101.83 -14.2 L 101.83 -14.2 Q 101.68 -12.71 101.56 -9.25 Q 101.43 -5.8 101.43 -2.88 L 101.43 -2.88 Q 101.43 -1.98 101.77 -1.61 Q 102.11 -1.24 102.89 -1.24 L 102.89 -1.24 Q 103.45 -1.24 103.8 -1.27 Q 104.16 -1.3 104.25 -1.3 L 104.25 -1.3 L 104.35 -1.21 L 104.13 0.09 Q 103.69 0.09 102.52 0.05 Q 101.34 0 100.22 0 L 100.22 0 Q 99.11 0 98.02 0.05 Q 96.94 0.09 96.53 0.12 L 96.53 0.12 Z M 122.36 0.28 Q 120.25 0.28 118.62 -0.65 Q 116.99 -1.58 116.11 -3.29 Q 115.23 -4.99 115.23 -7.22 L 115.23 -7.22 Q 115.23 -9.64 116.33 -11.58 Q 117.43 -13.52 119.33 -14.62 Q 121.24 -15.72 123.6 -15.72 L 123.6 -15.72 Q 125.74 -15.72 127.38 -14.79 Q 129.02 -13.86 129.92 -12.17 Q 130.82 -10.48 130.82 -8.25 L 130.82 -8.25 Q 130.82 -5.83 129.72 -3.89 Q 128.62 -1.95 126.68 -0.84 Q 124.74 0.28 122.36 0.28 L 122.36 0.28 Z M 123.1 -1.21 Q 125.36 -1.21 126.76 -2.84 Q 128.15 -4.46 128.15 -7.16 L 128.15 -7.16 Q 128.15 -9.21 127.49 -10.76 Q 126.82 -12.31 125.6 -13.14 Q 124.37 -13.98 122.76 -13.98 L 122.76 -13.98 Q 120.56 -13.98 119.21 -12.37 Q 117.86 -10.76 117.86 -8.06 L 117.86 -8.06 Q 117.86 -6.01 118.51 -4.46 Q 119.16 -2.91 120.36 -2.06 Q 121.55 -1.21 123.1 -1.21 L 123.1 -1.21 Z M 133.77 0.28 L 133.92 -0.99 Q 135.1 -1.21 135.49 -1.63 Q 135.87 -2.05 135.87 -3.1 L 135.87 -3.1 L 135.9 -12.93 Q 135.9 -13.7 135.72 -13.97 Q 135.53 -14.23 134.97 -14.23 L 134.97 -14.23 L 134.14 -14.2 L 134.08 -14.32 L 134.26 -15.5 Q 134.63 -15.5 135.72 -15.47 Q 136.8 -15.44 138.07 -15.44 L 138.07 -15.44 Q 142.88 -15.44 145.2 -15.72 L 145.2 -15.72 L 145.33 -15.56 Q 145.27 -15.22 145.05 -13.98 Q 144.83 -12.74 144.74 -11.35 L 144.74 -11.35 L 143.25 -11.25 Q 143.25 -11.38 143.28 -11.69 Q 143.31 -12 143.31 -12.31 L 143.31 -12.31 Q 143.31 -13.11 143.11 -13.44 Q 142.91 -13.76 142.26 -13.87 Q 141.61 -13.98 140.09 -13.98 L 140.09 -13.98 Q 139.25 -13.98 138.94 -13.93 Q 138.63 -13.89 138.54 -13.72 Q 138.45 -13.55 138.42 -13.08 L 138.42 -13.08 L 138.2 -8.28 L 140.77 -8.25 Q 141.27 -8.25 142.2 -8.35 Q 143.13 -8.46 143.44 -8.49 L 143.44 -8.49 L 143.56 -8.34 L 143.22 -6.7 Q 142.91 -6.7 142.01 -6.73 Q 141.11 -6.76 140.12 -6.76 L 140.12 -6.76 Q 139.25 -6.76 138.17 -6.6 L 138.17 -6.6 L 138.07 -2.94 Q 138.07 -1.98 138.29 -1.66 Q 138.51 -1.33 139.19 -1.33 L 139.19 -1.33 Q 139.69 -1.33 140.21 -1.38 Q 140.74 -1.43 140.93 -1.43 L 140.93 -1.43 L 141.02 -1.27 L 140.8 0.09 Q 140.4 0.06 139.27 0.03 Q 138.14 0 136.96 0 L 136.96 0 Q 136.06 0 135.07 0.11 Q 134.08 0.22 133.77 0.28 L 133.77 0.28 Z M 164.36 0.59 L 158.41 -16.12 L 158.25 -16.12 Q 158.07 -14.07 157.6 -8.45 Q 157.14 -2.82 157.14 -2.33 L 157.14 -2.33 Q 157.14 -1.36 158.1 -1.36 L 158.1 -1.36 L 159.37 -1.4 L 159.43 -1.27 L 159.15 0.12 Q 158.81 0.09 157.93 0.05 Q 157.05 0 156.15 0 L 156.15 0 Q 155.37 0 154.55 0.11 Q 153.73 0.22 153.48 0.25 L 153.48 0.25 L 153.64 -1.18 Q 154.63 -1.3 155.06 -1.81 Q 155.5 -2.33 155.62 -3.56 L 155.62 -3.56 Q 155.93 -6.48 156.44 -11.42 Q 156.95 -16.37 156.95 -16.96 L 156.95 -16.96 Q 156.95 -17.76 156.32 -18.17 Q 155.68 -18.57 154.29 -18.66 L 154.29 -18.66 L 154.19 -18.82 L 154.44 -19.9 Q 154.84 -19.87 156.02 -19.81 Q 157.2 -19.75 157.82 -19.75 L 157.82 -19.75 Q 158.38 -19.75 159.05 -19.79 Q 159.71 -19.84 159.93 -19.87 L 159.93 -19.87 Q 161.17 -15.87 162.33 -12.45 Q 163.49 -9.02 164.24 -7.01 Q 164.98 -4.99 165.17 -4.5 L 165.17 -4.5 L 165.32 -4.5 Q 165.76 -5.64 167.31 -9.95 Q 168.86 -14.26 170.69 -19.81 L 170.69 -19.81 Q 170.69 -19.84 171.52 -19.78 L 171.52 -19.78 L 172.73 -19.75 Q 173.32 -19.75 174.5 -19.82 Q 175.68 -19.9 176.08 -19.93 L 176.08 -19.93 L 176.14 -19.81 L 175.99 -18.66 Q 174.65 -18.51 174.1 -18.12 Q 173.54 -17.73 173.54 -16.96 L 173.54 -16.96 Q 173.54 -16.27 173.82 -11.89 Q 174.1 -7.5 174.34 -4.31 L 174.34 -4.31 Q 174.5 -3.04 174.65 -2.43 Q 174.81 -1.83 175.09 -1.6 Q 175.37 -1.36 175.86 -1.36 L 175.86 -1.36 Q 176.14 -1.36 176.39 -1.4 Q 176.64 -1.43 176.73 -1.43 L 176.73 -1.43 L 176.79 -1.3 L 176.51 0.09 Q 176.2 0.06 175.35 0.03 Q 174.5 0 173.57 0 L 173.57 0 Q 172.73 0 171.69 0.11 Q 170.66 0.22 170.34 0.25 L 170.34 0.25 L 170.47 -1.18 Q 171.43 -1.3 171.86 -1.67 Q 172.3 -2.05 172.3 -2.73 L 172.3 -2.73 Q 172.3 -3.38 171.85 -8.77 Q 171.4 -14.17 171.24 -16.12 L 171.24 -16.12 L 171.09 -16.12 L 165.11 0.37 L 164.36 0.59 Z M 179.99 0.25 L 180.14 -1.05 Q 181.29 -1.18 181.69 -1.61 Q 182.09 -2.05 182.09 -3.1 L 182.09 -3.1 L 182.13 -12.93 Q 182.13 -13.7 181.94 -13.97 Q 181.75 -14.23 181.2 -14.23 L 181.2 -14.23 L 180.36 -14.2 L 180.3 -14.32 L 180.48 -15.5 Q 180.85 -15.5 181.94 -15.47 Q 183.02 -15.44 184.3 -15.44 L 184.3 -15.44 Q 189.47 -15.44 191.95 -15.72 L 191.95 -15.72 L 192.05 -15.56 Q 191.98 -15.22 191.77 -14.01 Q 191.55 -12.8 191.46 -11.41 L 191.46 -11.41 L 189.97 -11.28 Q 189.97 -11.41 190 -11.7 Q 190.03 -12 190.03 -12.31 L 190.03 -12.31 Q 190.03 -13.11 189.8 -13.44 Q 189.56 -13.76 188.84 -13.87 Q 188.11 -13.98 186.31 -13.98 L 186.31 -13.98 Q 185.47 -13.98 185.16 -13.93 Q 184.85 -13.89 184.76 -13.72 Q 184.67 -13.55 184.64 -13.08 L 184.64 -13.08 L 184.45 -8.68 L 186.99 -8.65 Q 187.55 -8.65 188.64 -8.76 Q 189.72 -8.87 190.06 -8.9 L 190.06 -8.9 L 190.19 -8.74 L 189.81 -7.13 Q 189.47 -7.13 188.46 -7.16 Q 187.46 -7.19 186.34 -7.19 L 186.34 -7.19 Q 185.47 -7.19 184.39 -7.04 L 184.39 -7.04 Q 184.3 -4.68 184.3 -2.79 L 184.3 -2.79 Q 184.3 -2.08 184.4 -1.8 Q 184.51 -1.52 184.9 -1.43 Q 185.29 -1.33 186.19 -1.33 L 186.19 -1.33 Q 188.2 -1.33 189.07 -1.52 Q 189.94 -1.71 190.29 -2.28 Q 190.65 -2.85 190.87 -4.25 L 190.87 -4.25 L 192.23 -4.37 L 192.36 -4.22 Q 192.26 -3.88 192.03 -2.62 Q 191.8 -1.36 191.67 0 L 191.67 0 L 191.49 0.15 Q 190.65 0.12 188.02 0.06 Q 185.38 0 183.74 0 L 183.74 0 Q 182.47 0 181.38 0.11 Q 180.3 0.22 179.99 0.25 L 179.99 0.25 Z M 195.73 0.25 L 195.89 -1.05 Q 197.04 -1.18 197.44 -1.61 Q 197.84 -2.05 197.84 -3.1 L 197.84 -3.1 L 197.87 -12.93 Q 197.87 -13.7 197.69 -13.97 Q 197.5 -14.23 196.94 -14.23 L 196.94 -14.23 L 196.11 -14.2 L 196.04 -14.32 L 196.23 -15.5 Q 196.6 -15.5 197.69 -15.47 Q 198.77 -15.44 200.04 -15.44 L 200.04 -15.44 Q 205.22 -15.44 207.7 -15.72 L 207.7 -15.72 L 207.79 -15.56 Q 207.73 -15.22 207.51 -14.01 Q 207.3 -12.8 207.2 -11.41 L 207.2 -11.41 L 205.72 -11.28 Q 205.72 -11.41 205.75 -11.7 Q 205.78 -12 205.78 -12.31 L 205.78 -12.31 Q 205.78 -13.11 205.55 -13.44 Q 205.31 -13.76 204.58 -13.87 Q 203.86 -13.98 202.06 -13.98 L 202.06 -13.98 Q 201.22 -13.98 200.91 -13.93 Q 200.6 -13.89 200.51 -13.72 Q 200.41 -13.55 200.38 -13.08 L 200.38 -13.08 L 200.2 -8.68 L 202.74 -8.65 Q 203.3 -8.65 204.38 -8.76 Q 205.47 -8.87 205.81 -8.9 L 205.81 -8.9 L 205.93 -8.74 L 205.56 -7.13 Q 205.22 -7.13 204.21 -7.16 Q 203.21 -7.19 202.09 -7.19 L 202.09 -7.19 Q 201.22 -7.19 200.14 -7.04 L 200.14 -7.04 Q 200.04 -4.68 200.04 -2.79 L 200.04 -2.79 Q 200.04 -2.08 200.15 -1.8 Q 200.26 -1.52 200.65 -1.43 Q 201.03 -1.33 201.93 -1.33 L 201.93 -1.33 Q 203.95 -1.33 204.82 -1.52 Q 205.69 -1.71 206.04 -2.28 Q 206.4 -2.85 206.62 -4.25 L 206.62 -4.25 L 207.98 -4.37 L 208.1 -4.22 Q 208.01 -3.88 207.78 -2.62 Q 207.55 -1.36 207.42 0 L 207.42 0 L 207.24 0.15 Q 206.4 0.12 203.76 0.06 Q 201.13 0 199.49 0 L 199.49 0 Q 198.21 0 197.13 0.11 Q 196.04 0.22 195.73 0.25 L 195.73 0.25 Z M 213.22 0.12 L 213.44 -1.12 Q 214.67 -1.21 215.19 -1.43 Q 215.7 -1.64 215.84 -2.15 Q 215.98 -2.67 215.98 -3.94 L 215.98 -3.94 L 215.98 -14.2 Q 214.02 -14.14 213.34 -13.98 Q 212.66 -13.83 212.33 -13.25 Q 212.01 -12.68 211.79 -11.1 L 211.79 -11.1 L 210.33 -11.01 Q 210.4 -11.41 210.54 -12.79 Q 210.68 -14.17 210.71 -15.5 L 210.71 -15.5 L 210.95 -15.72 L 213.16 -15.47 L 221.06 -15.47 L 223.32 -15.72 L 223.57 -15.5 Q 223.6 -14.14 223.73 -12.8 Q 223.85 -11.47 223.91 -11.1 L 223.91 -11.1 L 222.49 -11.01 Q 222.24 -12.62 221.91 -13.22 Q 221.59 -13.83 220.95 -13.98 Q 220.32 -14.14 218.52 -14.2 L 218.52 -14.2 Q 218.36 -12.71 218.24 -9.25 Q 218.12 -5.8 218.12 -2.88 L 218.12 -2.88 Q 218.12 -1.98 218.46 -1.61 Q 218.8 -1.24 219.57 -1.24 L 219.57 -1.24 Q 220.13 -1.24 220.49 -1.27 Q 220.84 -1.3 220.94 -1.3 L 220.94 -1.3 L 221.03 -1.21 L 220.81 0.09 Q 220.38 0.09 219.2 0.05 Q 218.02 0 216.91 0 L 216.91 0 Q 215.79 0 214.71 0.05 Q 213.62 0.09 213.22 0.12 L 213.22 0.12 Z M 226.14 0.28 L 226.3 -0.99 Q 227.48 -1.21 227.88 -1.63 Q 228.28 -2.05 228.28 -3.07 L 228.28 -3.07 L 228.31 -12.93 Q 228.31 -13.7 228.13 -13.97 Q 227.94 -14.23 227.38 -14.23 L 227.38 -14.23 L 226.36 -14.2 L 226.3 -14.32 L 226.45 -15.5 Q 226.64 -15.5 227.46 -15.47 Q 228.28 -15.44 229.62 -15.44 L 229.62 -15.44 Q 230.33 -15.44 231.37 -15.53 Q 232.41 -15.62 232.72 -15.65 L 232.72 -15.65 L 232.59 -14.38 Q 231.57 -14.26 231.23 -14 Q 230.89 -13.73 230.83 -13.02 L 230.83 -13.02 Q 230.7 -10.54 230.59 -7.53 Q 230.48 -4.53 230.48 -2.88 L 230.48 -2.88 Q 230.48 -1.89 230.7 -1.55 Q 230.92 -1.21 231.57 -1.21 L 231.57 -1.21 Q 232 -1.21 232.36 -1.24 Q 232.72 -1.27 232.84 -1.3 L 232.84 -1.3 L 232.9 -1.18 L 232.69 0.06 Q 232.31 0.06 231.29 0.03 Q 230.27 0 229.24 0 L 229.24 0 Q 228.41 0 227.43 0.11 Q 226.45 0.22 226.14 0.28 L 226.14 0.28 Z M 248.71 -4.22 L 248.68 -13.18 Q 248.68 -14.2 247.84 -14.2 L 247.84 -14.2 L 246.91 -14.2 L 246.85 -14.32 L 247.07 -15.53 Q 247.35 -15.5 248.12 -15.47 Q 248.9 -15.44 249.7 -15.44 L 249.7 -15.44 Q 250.39 -15.44 251.24 -15.52 Q 252.09 -15.59 252.34 -15.62 L 252.34 -15.62 L 252.22 -14.35 Q 251.32 -14.23 250.93 -13.87 Q 250.54 -13.52 250.51 -12.8 L 250.51 -12.8 L 250.14 0.53 L 248.93 0.87 Q 245.98 -3.44 242.98 -7.56 Q 239.97 -11.69 239.97 -11.63 L 239.97 -11.63 L 239.82 -11.63 L 239.72 -2.23 Q 239.72 -1.64 239.91 -1.43 Q 240.09 -1.21 240.53 -1.21 L 240.53 -1.21 L 241.77 -1.24 L 241.86 -1.15 L 241.61 0.09 Q 241.33 0.06 240.51 0.03 Q 239.69 0 238.79 0 L 238.79 0 Q 238.08 0 237.27 0.08 Q 236.47 0.15 236.22 0.19 L 236.22 0.19 L 236.38 -1.08 Q 237.15 -1.18 237.52 -1.53 Q 237.89 -1.89 237.92 -2.6 L 237.92 -2.6 L 238.27 -12.83 Q 238.27 -13.61 237.82 -13.9 Q 237.37 -14.2 236.1 -14.35 L 236.1 -14.35 L 235.97 -14.51 L 236.19 -15.56 Q 236.44 -15.53 237.13 -15.48 Q 237.83 -15.44 238.54 -15.44 L 238.54 -15.44 Q 239.23 -15.44 239.75 -15.47 Q 240.28 -15.5 240.44 -15.53 L 240.44 -15.53 Q 242.95 -11.84 245.75 -8 Q 248.56 -4.15 248.56 -4.22 L 248.56 -4.22 L 248.71 -4.22 Z M 262.17 0.28 Q 258.76 0.28 256.73 -1.75 Q 254.7 -3.78 254.7 -7.22 L 254.7 -7.22 Q 254.7 -9.77 255.81 -11.69 Q 256.93 -13.61 258.96 -14.66 Q 260.99 -15.72 263.65 -15.72 L 263.65 -15.72 Q 264.62 -15.72 265.72 -15.59 Q 266.82 -15.47 267.61 -15.31 Q 268.4 -15.16 268.62 -15.13 L 268.62 -15.13 L 268.74 -14.94 Q 268.71 -14.79 268.57 -14.21 Q 268.43 -13.64 268.29 -12.73 Q 268.15 -11.81 268.09 -10.79 L 268.09 -10.79 L 266.57 -10.66 Q 266.57 -10.79 266.6 -11.14 Q 266.63 -11.5 266.63 -11.97 L 266.63 -11.97 Q 266.63 -13.05 265.79 -13.53 Q 264.96 -14.01 263.07 -14.01 L 263.07 -14.01 Q 260.31 -14.01 258.83 -12.48 Q 257.36 -10.94 257.36 -8.03 L 257.36 -8.03 Q 257.36 -4.9 258.82 -3.08 Q 260.28 -1.27 262.76 -1.27 L 262.76 -1.27 Q 263.62 -1.27 264.34 -1.46 Q 265.05 -1.64 265.47 -1.83 Q 265.89 -2.02 265.98 -2.08 L 265.98 -2.08 L 265.98 -4.8 Q 265.98 -5.58 265.72 -5.83 Q 265.45 -6.08 264.65 -6.08 L 264.65 -6.08 L 263 -6.08 L 262.94 -6.2 L 263.19 -7.56 Q 263.31 -7.56 264.35 -7.53 Q 265.39 -7.5 266.48 -7.5 L 266.48 -7.5 Q 267.19 -7.5 267.89 -7.55 Q 268.58 -7.59 268.77 -7.63 L 268.77 -7.63 L 268.89 -6.94 Q 268.4 -6.57 268.23 -5.8 Q 268.06 -5.02 268.06 -3.13 L 268.06 -3.13 Q 268.06 -1.74 268.21 -1.02 L 268.21 -1.02 L 268.06 -0.78 Q 267.84 -0.68 267.05 -0.43 Q 266.26 -0.19 264.96 0.05 Q 263.65 0.28 262.17 0.28 L 262.17 0.28 Z" stroke-linecap="round" />
</g>
</g>
</g>
<g transform="matrix(1.9211538461538462 0 0 1.9211538461538462 852.6324402455863 394.93662394460785)" id="tagline-fa0ed8a9-012b-49f3-a50a-ac68cca4b6fd-logo"  >
<g style=""  paint-order="stroke"   >
		<g transform="matrix(1 0 0 1 5.684342e-14 -2.842171e-14)" id="tagline-fa0ed8a9-012b-49f3-a50a-ac68cca4b6fd-logo-path-0"  >
<path style="stroke: none; stroke-width: 0; stroke-dasharray: none; stroke-linecap: butt; stroke-dashoffset: 0; stroke-linejoin: miter; stroke-miterlimit: 4; fill: rgb(55,53,67); fill-rule: nonzero; opacity: 0.34;"  paint-order="stroke"  transform=" translate(-98.14500000000001, 108.31)" d="M 112.55 3.39 L 111.53 1.02 L 112.89 -12.2 Q 130.18 -13.56 136.62 -16.27 Q 143.06 -18.98 143.06 -25.09 L 143.06 -25.09 Q 143.06 -31.87 140.01 -41.36 L 140.01 -41.36 L 128.82 -78.31 Q 120.68 -78.65 93.56 -78.65 L 93.56 -78.65 Q 77.29 -78.65 56.61 -75.94 L 56.61 -75.94 L 44.07 -40.68 Q 41.02 -31.53 41.02 -27.46 L 41.02 -27.46 Q 41.02 -20 45.77 -16.78 Q 50.51 -13.56 61.36 -13.56 L 61.36 -13.56 L 80.68 -13.56 L 81.36 -12.2 L 79.33 2.37 Q 75.26 2.03 60.68 1.02 Q 46.1 0 32.21 0 L 32.21 0 Q 19.66 0 8.98 0.34 Q -1.7 0.68 -5.08 1.02 L -5.08 1.02 L -2.37 -14.92 Q 7.12 -15.93 12.88 -21.53 Q 18.64 -27.12 24.07 -41.02 L 24.07 -41.02 L 90.17 -214.25 L 111.53 -220.01 L 114.24 -220.01 Q 116.28 -211.88 124.58 -182.38 Q 132.89 -152.89 144.92 -112.55 Q 156.96 -72.21 168.14 -38.31 L 168.14 -38.31 Q 172.21 -25.76 178.99 -20.68 Q 185.77 -15.59 200.69 -14.24 L 200.69 -14.24 L 201.37 -12.88 L 198.99 1.02 Q 194.93 1.02 184.25 0.51 Q 173.57 0 163.06 0 L 163.06 0 Q 146.79 0 131.7 1.36 Q 116.62 2.71 112.55 3.39 L 112.55 3.39 Z M 62.72 -92.55 L 92.55 -92.55 Q 104.75 -92.55 124.07 -94.24 L 124.07 -94.24 L 97.29 -183.06 L 94.92 -183.06 L 62.72 -92.55 Z" stroke-linecap="round" />
</g>
</g>
</g>
<g transform="matrix(1.8767478466352767 0 0 1.8767478466352767 640 377.7672199127925)" id="logo-logo"  >
<g style=""  paint-order="stroke"   >
		<g transform="matrix(0.3807517650892365 0 0 -0.3807517650892366 -61.590541564860985 -16.41196157539025)"  >
<linearGradient id="SVGID_57596" gradientUnits="userSpaceOnUse" gradientTransform="matrix(1 0 0 1 1305.1103731088792 1210.9799999999996)"  x1="0" y1="0" x2="0" y2="676">
<stop offset="0%" style="stop-color:rgb(98,39,116);stop-opacity: 1"/>
<stop offset="100%" style="stop-color:rgb(197,51,100);stop-opacity: 1"/>
</linearGradient>
<path style="stroke: none; stroke-width: 1; stroke-dasharray: none; stroke-linecap: butt; stroke-dashoffset: 0; stroke-linejoin: miter; stroke-miterlimit: 10; fill: url(#SVGID_57596); fill-rule: nonzero; opacity: 1;"  paint-order="stroke"  transform=" translate(-1461.7401865544396, -1548.9449999999997)" d="M 1378.34 1592.16 C 1436.4599999999998 1726.5300000000002 1535.1999999999998 1770.3700000000001 1618.37 1781.04 C 1590.78 1790.35 1558.07 1796.19 1519.1399999999999 1796.8 C 1519.1399999999999 1796.8 1537.9099999999999 1847.48 1577.34 1886.9099999999999 C 1577.34 1886.9099999999999 1303.2399999999998 1770.4999999999998 1305.12 1509.5499999999997 C 1306.11 1369.9799999999998 1390.37 1272.8799999999997 1492.36 1210.9799999999998 C 1389.73 1302.3799999999999 1312.09 1439.0599999999997 1378.34 1592.1599999999999" stroke-linecap="round" />
</g>
		<g transform="matrix(0.3807517650892365 0 0 -0.3807517650892366 -61.590541564860985 -16.41196157539025)"  >
<linearGradient id="SVGID_57597" gradientUnits="userSpaceOnUse" gradientTransform="matrix(1 0 0 1 1305.1103731088792 1210.9799999999996)"  x1="0" y1="0" x2="0" y2="676">
<stop offset="0%" style="stop-color:rgb(98,39,116);stop-opacity: 1"/>
<stop offset="100%" style="stop-color:rgb(197,51,100);stop-opacity: 1"/>
</linearGradient>
<path style="stroke: none; stroke-width: 1; stroke-dasharray: none; stroke-linecap: butt; stroke-dashoffset: 0; stroke-linejoin: miter; stroke-miterlimit: 10; fill: url(#SVGID_57597); fill-rule: nonzero; opacity: 1;"  paint-order="stroke"  transform=" translate(-1461.7401865544396, -1548.9449999999997)" d="M 1378.34 1592.16 C 1436.4599999999998 1726.5300000000002 1535.1999999999998 1770.3700000000001 1618.37 1781.04 C 1590.78 1790.35 1558.07 1796.19 1519.1399999999999 1796.8 C 1519.1399999999999 1796.8 1537.9099999999999 1847.48 1577.34 1886.9099999999999 C 1577.34 1886.9099999999999 1303.2399999999998 1770.4999999999998 1305.12 1509.5499999999997 C 1306.11 1369.9799999999998 1390.37 1272.8799999999997 1492.36 1210.9799999999998 C 1389.73 1302.3799999999999 1312.09 1439.0599999999997 1378.34 1592.1599999999999" stroke-linecap="round" />
</g>
		<g transform="matrix(0.3807517650892365 0 0 -0.3807517650892366 23.706410034568194 31.519979728652487)"  >
<linearGradient id="SVGID_57598" gradientUnits="userSpaceOnUse" gradientTransform="matrix(1 0 0 1 1429.797963299277 1124.6799999999994)"  x1="0" y1="0" x2="0" y2="597">
<stop offset="0%" style="stop-color:rgb(98,39,116);stop-opacity: 1"/>
<stop offset="100%" style="stop-color:rgb(197,51,100);stop-opacity: 1"/>
</linearGradient>
<path style="stroke: none; stroke-width: 1; stroke-dasharray: none; stroke-linecap: butt; stroke-dashoffset: 0; stroke-linejoin: miter; stroke-miterlimit: 10; fill: url(#SVGID_57598); fill-rule: nonzero; opacity: 1;"  paint-order="stroke"  transform=" translate(-1685.9260194421859, -1422.9655564924392)" d="M 1937.8 1494.54 C 1917.1499999999999 1582.77 1815.76 1599.67 1765.08 1588.3999999999999 C 1751.9399999999998 1665.35 1688.54 1720.9299999999998 1597.71 1721.2499999999998 C 1478.95 1721.6599999999999 1400.38 1608.7099999999998 1440.29 1520.8399999999997 C 1482.52 1427.8599999999997 1623.59 1488.3999999999996 1683.45 1437.9999999999998 C 1726.28 1401.9399999999998 1714.39 1361.2499999999998 1714.39 1361.2499999999998 C 1624.27 1483.2699999999998 1470.3200000000002 1381.8999999999999 1528.52 1271.1299999999997 C 1586.72 1160.3499999999997 1755.7 1124.6799999999996 1755.7 1124.6799999999996 C 1755.7 1124.6799999999996 1710.64 1216.6699999999996 1806.39 1278.6299999999997 C 1902.14 1340.5799999999997 1958.46 1406.2999999999997 1937.8000000000002 1494.5399999999997 z M 1540.24 1515.1599999999999 C 1506.8 1515.1599999999999 1479.7 1542.2699999999998 1479.7 1575.7099999999998 C 1479.7 1609.1399999999999 1506.8 1636.2499999999998 1540.24 1636.2499999999998 C 1573.69 1636.2499999999998 1600.79 1609.1399999999999 1600.79 1575.7099999999998 C 1600.79 1542.2699999999998 1573.69 1515.1599999999999 1540.24 1515.1599999999999" stroke-linecap="round" />
</g>
		<g transform="matrix(0.3807517650892365 0 0 -0.3807517650892366 23.706410034568194 31.519979728652487)"  >
<linearGradient id="SVGID_57599" gradientUnits="userSpaceOnUse" gradientTransform="matrix(1 0 0 1 1429.797963299277 1124.6799999999994)"  x1="0" y1="0" x2="0" y2="597">
<stop offset="0%" style="stop-color:rgb(98,39,116);stop-opacity: 1"/>
<stop offset="100%" style="stop-color:rgb(197,51,100);stop-opacity: 1"/>
</linearGradient>
<path style="stroke: none; stroke-width: 1; stroke-dasharray: none; stroke-linecap: butt; stroke-dashoffset: 0; stroke-linejoin: miter; stroke-miterlimit: 10; fill: url(#SVGID_57599); fill-rule: nonzero; opacity: 1;"  paint-order="stroke"  transform=" translate(-1685.9260194421859, -1422.9655564924392)" d="M 1937.8 1494.54 C 1917.1499999999999 1582.77 1815.76 1599.67 1765.08 1588.3999999999999 C 1751.9399999999998 1665.35 1688.54 1720.9299999999998 1597.71 1721.2499999999998 C 1478.95 1721.6599999999999 1400.38 1608.7099999999998 1440.29 1520.8399999999997 C 1482.52 1427.8599999999997 1623.59 1488.3999999999996 1683.45 1437.9999999999998 C 1726.28 1401.9399999999998 1714.39 1361.2499999999998 1714.39 1361.2499999999998 C 1624.27 1483.2699999999998 1470.3200000000002 1381.8999999999999 1528.52 1271.1299999999997 C 1586.72 1160.3499999999997 1755.7 1124.6799999999996 1755.7 1124.6799999999996 C 1755.7 1124.6799999999996 1710.64 1216.6699999999996 1806.39 1278.6299999999997 C 1902.14 1340.5799999999997 1958.46 1406.2999999999997 1937.8000000000002 1494.5399999999997 z M 1540.24 1515.1599999999999 C 1506.8 1515.1599999999999 1479.7 1542.2699999999998 1479.7 1575.7099999999998 C 1479.7 1609.1399999999999 1506.8 1636.2499999999998 1540.24 1636.2499999999998 C 1573.69 1636.2499999999998 1600.79 1609.1399999999999 1600.79 1575.7099999999998 C 1600.79 1542.2699999999998 1573.69 1515.1599999999999 1540.24 1515.1599999999999" stroke-linecap="round" />
</g>
		<g transform="matrix(0.3807517650892365 0 0 -0.3807517650892366 3.383249809215272 88.89263965753443)"  >
<linearGradient id="SVGID_57600" gradientUnits="userSpaceOnUse" gradientTransform="matrix(1 0 0 1 1509.320026840316 1124.68)"  x1="0" y1="0" x2="0" y2="295">
<stop offset="0%" style="stop-color:rgb(98,39,116);stop-opacity: 1"/>
<stop offset="100%" style="stop-color:rgb(197,51,100);stop-opacity: 1"/>
</linearGradient>
<path style="stroke: none; stroke-width: 1; stroke-dasharray: none; stroke-linecap: butt; stroke-dashoffset: 0; stroke-linejoin: miter; stroke-miterlimit: 10; fill: url(#SVGID_57600); fill-rule: nonzero; opacity: 1;"  paint-order="stroke"  transform=" translate(-1632.510013420158, -1272.1726084915445)" d="M 1755.7 1124.68 C 1513.52 1226.95 1555.74 1354.72 1606.43 1376.31 C 1657.1200000000001 1397.8999999999999 1714.39 1361.25 1714.39 1361.25 C 1673.96 1415.97 1618.1100000000001 1429.32 1575.45 1413.39 C 1523.01 1393.8100000000002 1489.8600000000001 1331.8200000000002 1521.95 1270.72 C 1580.15 1159.95 1755.7 1124.68 1755.7 1124.68" stroke-linecap="round" />
</g>
		<g transform="matrix(0.3807517650892365 0 0 -0.3807517650892366 3.383249809215272 88.89263965753443)"  >
<linearGradient id="SVGID_57601" gradientUnits="userSpaceOnUse" gradientTransform="matrix(1 0 0 1 1509.320026840316 1124.68)"  x1="0" y1="0" x2="0" y2="295">
<stop offset="0%" style="stop-color:rgb(98,39,116);stop-opacity: 1"/>
<stop offset="100%" style="stop-color:rgb(197,51,100);stop-opacity: 1"/>
</linearGradient>
<path style="stroke: none; stroke-width: 1; stroke-dasharray: none; stroke-linecap: butt; stroke-dashoffset: 0; stroke-linejoin: miter; stroke-miterlimit: 10; fill: url(#SVGID_57601); fill-rule: nonzero; opacity: 1;"  paint-order="stroke"  transform=" translate(-1632.510013420158, -1272.1726084915445)" d="M 1755.7 1124.68 C 1513.52 1226.95 1555.74 1354.72 1606.43 1376.31 C 1657.1200000000001 1397.8999999999999 1714.39 1361.25 1714.39 1361.25 C 1673.96 1415.97 1618.1100000000001 1429.32 1575.45 1413.39 C 1523.01 1393.8100000000002 1489.8600000000001 1331.8200000000002 1521.95 1270.72 C 1580.15 1159.95 1755.7 1124.68 1755.7 1124.68" stroke-linecap="round" />
</g>
</g>
</g>
</svg>